<?xml version="1.0" encoding="utf-8"?>
<!-- Generator: Adobe Illustrator 16.0.0, SVG Export Plug-In . SVG Version: 6.00 Build 0)  -->
<!DOCTYPE svg PUBLIC "-//W3C//DTD SVG 1.1//EN" "http://www.w3.org/Graphics/SVG/1.1/DTD/svg11.dtd">
<svg version="1.1" xmlns="http://www.w3.org/2000/svg" xmlns:xlink="http://www.w3.org/1999/xlink" x="0px" y="0px" width="250px"
	 height="50px" viewBox="0 0 250 50" enable-background="new 0 0 250 50" xml:space="preserve">
<g id="Layer_1" display="none">
</g>
<g id="Layer_2" display="none">
	<rect x="0.183" display="inline" width="250" height="50"/>
</g>
<g id="TEXT">
</g>
<g id="Layer_4">
	<g>
		<g>
			<path fill="#FFFFFF" d="M0.56,25.839h5.245l6.498,12.815l6.438-12.815h5.216v20.862h-4.232V32.605l-5.931,11.98h-3.04
				l-5.961-11.98v14.096H0.56V25.839z"/>
			<path fill="#FFFFFF" d="M28.575,25.839h4.709v20.862h-4.709V25.839z"/>
			<path fill="#FFFFFF" d="M37.903,25.839h4.709v16.75h8.941v4.111h-13.65V25.839z"/>
			<path fill="#FFFFFF" d="M64.682,30.086c-1.203-0.387-2.231-0.58-3.085-0.58c-0.815,0-1.46,0.148-1.937,0.445
				c-0.477,0.299-0.716,0.736-0.716,1.313c0,0.734,0.343,1.297,1.029,1.684c0.685,0.389,1.743,0.791,3.174,1.207
				c1.43,0.416,2.607,0.834,3.531,1.252c0.924,0.416,1.714,1.043,2.37,1.877c0.655,0.834,0.983,1.938,0.983,3.307
				c0,1.334-0.353,2.48-1.058,3.443c-0.706,0.965-1.674,1.695-2.906,2.191s-2.633,0.746-4.202,0.746
				c-1.689,0-3.348-0.301-4.977-0.896c-1.629-0.596-3.04-1.41-4.232-2.443l1.877-3.844c1.053,0.955,2.265,1.719,3.636,2.295
				s2.623,0.863,3.756,0.863c0.973,0,1.733-0.178,2.28-0.535c0.546-0.359,0.819-0.873,0.819-1.551c0-0.537-0.184-0.977-0.551-1.326
				c-0.368-0.348-0.834-0.631-1.401-0.848c-0.566-0.221-1.346-0.469-2.339-0.746c-1.431-0.398-2.598-0.795-3.502-1.193
				c-0.904-0.396-1.684-1.002-2.34-1.816c-0.656-0.816-0.983-1.898-0.983-3.248c0-1.252,0.337-2.35,1.013-3.295
				c0.675-0.943,1.619-1.668,2.831-2.176c1.212-0.506,2.623-0.759,4.232-0.759c1.431,0,2.841,0.208,4.232,0.626
				c1.391,0.416,2.623,0.973,3.696,1.668l-1.818,3.904C67.021,30.994,65.883,30.473,64.682,30.086z"/>
			<path fill="#FFFFFF" d="M88.748,26.912c1.708,0.934,3.055,2.221,4.039,3.859c0.983,1.641,1.476,3.461,1.476,5.469
				s-0.492,3.836-1.476,5.484s-2.33,2.945-4.039,3.889c-1.708,0.945-3.606,1.416-5.693,1.416c-2.086,0-3.984-0.471-5.692-1.416
				c-1.709-0.943-3.055-2.234-4.039-3.873c-0.983-1.641-1.476-3.475-1.476-5.5c0-2.008,0.492-3.828,1.476-5.469
				c0.983-1.639,2.325-2.926,4.023-3.859s3.601-1.401,5.707-1.401C85.142,25.511,87.039,25.979,88.748,26.912z M79.896,30.504
				c-0.994,0.586-1.778,1.385-2.354,2.398c-0.577,1.012-0.865,2.125-0.865,3.338c0,1.232,0.293,2.354,0.88,3.369
				c0.585,1.012,1.371,1.816,2.354,2.412c0.984,0.596,2.051,0.896,3.204,0.896c1.152,0,2.21-0.295,3.174-0.881
				s1.729-1.391,2.295-2.414c0.566-1.023,0.85-2.15,0.85-3.383c0-1.213-0.284-2.326-0.85-3.338
				c-0.566-1.014-1.332-1.813-2.295-2.398s-2.021-0.881-3.174-0.881C81.962,29.623,80.889,29.918,79.896,30.504z"/>
			<path fill="#FFFFFF" d="M112.233,26.912c1.709,0.934,3.055,2.221,4.039,3.859c0.983,1.641,1.475,3.461,1.475,5.469
				s-0.492,3.836-1.475,5.484c-0.984,1.648-2.33,2.945-4.039,3.889c-1.708,0.945-3.606,1.416-5.692,1.416
				c-2.086,0-3.984-0.471-5.692-1.416c-1.709-0.943-3.055-2.234-4.039-3.873c-0.983-1.641-1.475-3.475-1.475-5.5
				c0-2.008,0.492-3.828,1.475-5.469c0.983-1.639,2.325-2.926,4.023-3.859c1.699-0.934,3.601-1.401,5.708-1.401
				C108.627,25.511,110.524,25.979,112.233,26.912z M103.382,30.504c-0.994,0.586-1.779,1.385-2.355,2.398
				c-0.577,1.012-0.864,2.125-0.864,3.338c0,1.232,0.293,2.354,0.879,3.369c0.585,1.012,1.371,1.816,2.354,2.412
				s2.051,0.896,3.204,0.896s2.21-0.295,3.174-0.881c0.963-0.586,1.729-1.391,2.294-2.414c0.567-1.023,0.85-2.15,0.85-3.383
				c0-1.213-0.283-2.326-0.85-3.338c-0.566-1.014-1.331-1.813-2.294-2.398c-0.964-0.586-2.022-0.881-3.174-0.881
				S104.375,29.918,103.382,30.504z"/>
			<path fill="#FFFFFF" d="M131.174,30.086c-1.203-0.387-2.231-0.58-3.085-0.58c-0.815,0-1.46,0.148-1.938,0.445
				c-0.477,0.299-0.715,0.736-0.715,1.313c0,0.734,0.343,1.297,1.029,1.684c0.687,0.389,1.743,0.791,3.174,1.207
				s2.608,0.834,3.532,1.252c0.924,0.416,1.713,1.043,2.368,1.877c0.656,0.834,0.984,1.938,0.984,3.307
				c0,1.334-0.354,2.48-1.059,3.443c-0.704,0.965-1.675,1.695-2.906,2.191s-2.632,0.746-4.202,0.746
				c-1.688,0-3.348-0.301-4.977-0.896c-1.629-0.596-3.04-1.41-4.232-2.443l1.877-3.844c1.053,0.955,2.265,1.719,3.636,2.295
				s2.623,0.863,3.756,0.863c0.972,0,1.732-0.178,2.28-0.535c0.545-0.359,0.819-0.873,0.819-1.551c0-0.537-0.184-0.977-0.552-1.326
				c-0.368-0.348-0.835-0.631-1.4-0.848c-0.566-0.221-1.347-0.469-2.339-0.746c-1.432-0.398-2.599-0.795-3.503-1.193
				c-0.904-0.396-1.684-1.002-2.34-1.816c-0.656-0.816-0.983-1.898-0.983-3.248c0-1.252,0.337-2.35,1.013-3.295
				c0.675-0.943,1.619-1.668,2.831-2.176c1.212-0.506,2.623-0.759,4.233-0.759c1.429,0,2.84,0.208,4.23,0.626
				c1.391,0.416,2.622,0.973,3.697,1.668l-1.819,3.904C133.513,30.994,132.376,30.473,131.174,30.086z"/>
			<path fill="#FFFFFF" d="M139.831,25.839h15.885v3.903H144.54v4.531h10.044v3.904H144.54v4.619h11.504v3.904h-16.213V25.839z"/>
			<path fill="#FFFFFF" d="M159.741,25.839h4.708v16.75h8.941v4.111h-13.649V25.839z"/>
			<path fill="#FFFFFF" d="M176.191,25.839h4.709v16.75h8.941v4.111h-13.65V25.839z"/>
			<path fill="#FFFFFF" d="M192.643,25.839h15.885v3.903h-11.176v4.531h10.044v3.904h-10.044v4.619h11.504v3.904h-16.213V25.839z"/>
			<path fill="#FFFFFF" d="M225.368,46.701l-3.31-5.959h-0.446h-4.352v5.959h-4.708V25.839h9.06c2.722,0,4.828,0.631,6.318,1.891
				c1.49,1.264,2.235,3.047,2.235,5.352c0,1.607-0.333,2.984-0.998,4.127c-0.667,1.145-1.635,2.012-2.906,2.607l4.44,6.885H225.368z
				 M217.261,36.807h4.352c1.312,0,2.319-0.303,3.024-0.91c0.706-0.605,1.059-1.494,1.059-2.666c0-1.152-0.353-2.023-1.059-2.607
				c-0.705-0.586-1.713-0.881-3.024-0.881h-4.352V36.807z"/>
			<path fill="#FFFFFF" d="M244.456,30.086c-1.202-0.387-2.23-0.58-3.084-0.58c-0.815,0-1.461,0.148-1.938,0.445
				c-0.476,0.299-0.714,0.736-0.714,1.313c0,0.734,0.342,1.297,1.027,1.684c0.686,0.389,1.743,0.791,3.175,1.207
				c1.43,0.416,2.607,0.834,3.531,1.252c0.924,0.416,1.713,1.043,2.369,1.877c0.655,0.834,0.983,1.938,0.983,3.307
				c0,1.334-0.354,2.48-1.058,3.443c-0.705,0.965-1.675,1.695-2.906,2.191s-2.633,0.746-4.202,0.746
				c-1.688,0-3.348-0.301-4.978-0.896c-1.629-0.596-3.04-1.41-4.232-2.443l1.878-3.844c1.054,0.955,2.266,1.719,3.637,2.295
				s2.622,0.863,3.755,0.863c0.973,0,1.733-0.178,2.28-0.535c0.546-0.359,0.818-0.873,0.818-1.551c0-0.537-0.183-0.977-0.55-1.326
				c-0.368-0.348-0.835-0.631-1.401-0.848c-0.566-0.221-1.346-0.469-2.339-0.746c-1.432-0.398-2.599-0.795-3.502-1.193
				c-0.905-0.396-1.685-1.002-2.34-1.816c-0.656-0.816-0.984-1.898-0.984-3.248c0-1.252,0.338-2.35,1.014-3.295
				c0.675-0.943,1.619-1.668,2.831-2.176c1.212-0.506,2.623-0.759,4.233-0.759c1.43,0,2.84,0.208,4.231,0.626
				c1.391,0.416,2.622,0.973,3.695,1.668l-1.818,3.904C246.796,30.994,245.657,30.473,244.456,30.086z"/>
		</g>
		<linearGradient id="SVGID_1_" gradientUnits="userSpaceOnUse" x1="28.5381" y1="34.667" x2="30.8409" y2="7.2565">
			<stop  offset="0.0161" style="stop-color:#FFFFFF"/>
			<stop  offset="0.3482" style="stop-color:#0E723A"/>
			<stop  offset="0.5821" style="stop-color:#11733A"/>
			<stop  offset="1" style="stop-color:#6CB845"/>
		</linearGradient>
		<path fill="url(#SVGID_1_)" d="M16.83,8.169h-4.702c0,9.086,7.261,16.454,16.347,16.454l0.106,10.578
			c0,0.645,0.53,1.176,1.175,1.176h2.351c0.646,0,1.175-0.531,1.175-1.176l0.088-10.665C33.371,15.45,25.917,8.169,16.83,8.169z
			 M45.035,3.469c-6.185,0-11.561,3.416-14.375,8.463c2.035,2.217,3.541,4.913,4.335,7.902c8.278-0.86,14.741-7.852,14.741-16.365
			H45.035z"/>
	</g>
</g>
</svg>
